<svg id="visual" viewBox="0 0 960 540" width="960" height="540" xmlns="http://www.w3.org/2000/svg" xmlns:xlink="http://www.w3.org/1999/xlink" version="1.1"><g stroke-width="1" stroke-linejoin="bevel"><path d="M531.3 300L552.3 358L628 303Z" fill="#19435d" stroke="#19435d"></path><path d="M552.3 358L627 362L628 303Z" fill="#081a28" stroke="#081a28"></path><path d="M464.7 442L542.3 413L552.3 358Z" fill="#246688" stroke="#246688"></path><path d="M552.3 358L542.3 413L627 362Z" fill="#246688" stroke="#246688"></path><path d="M628 303L604 172L531.3 300Z" fill="#277297" stroke="#277297"></path><path d="M604 172L531.3 171L531.3 300Z" fill="#277297" stroke="#277297"></path><path d="M412.7 360L464.7 442L552.3 358Z" fill="#19435d" stroke="#19435d"></path><path d="M412.7 360L552.3 358L531.3 300Z" fill="#0c2435" stroke="#0c2435"></path><path d="M390.7 266L412.7 360L531.3 300Z" fill="#15384f" stroke="#15384f"></path><path d="M519.3 540L654 482L542.3 413Z" fill="#00101c" stroke="#00101c"></path><path d="M542.3 413L654 482L627 362Z" fill="#19435d" stroke="#19435d"></path><path d="M627 362L762.7 309L628 303Z" fill="#112e42" stroke="#112e42"></path><path d="M753.7 388L762.7 309L627 362Z" fill="#277297" stroke="#277297"></path><path d="M628 303L768.7 209L604 172Z" fill="#1d4e6b" stroke="#1d4e6b"></path><path d="M654 482L753.7 388L627 362Z" fill="#246688" stroke="#246688"></path><path d="M440.7 162L390.7 266L531.3 300Z" fill="#246688" stroke="#246688"></path><path d="M765.7 77L602 110L604 172Z" fill="#19435d" stroke="#19435d"></path><path d="M604 172L602 110L531.3 171Z" fill="#0c2435" stroke="#0c2435"></path><path d="M531.3 171L440.7 162L531.3 300Z" fill="#00101c" stroke="#00101c"></path><path d="M545.3 90L440.7 162L531.3 171Z" fill="#1d4e6b" stroke="#1d4e6b"></path><path d="M762.7 309L768.7 209L628 303Z" fill="#112e42" stroke="#112e42"></path><path d="M654 482L751.7 448L753.7 388Z" fill="#00101c" stroke="#00101c"></path><path d="M880.3 373L827.3 252L762.7 309Z" fill="#15384f" stroke="#15384f"></path><path d="M602 110L545.3 90L531.3 171Z" fill="#1d4e6b" stroke="#1d4e6b"></path><path d="M427.7 540L519.3 540L464.7 442Z" fill="#00101c" stroke="#00101c"></path><path d="M464.7 442L519.3 540L542.3 413Z" fill="#19435d" stroke="#19435d"></path><path d="M654 482L775.7 540L751.7 448Z" fill="#19435d" stroke="#19435d"></path><path d="M519.3 540L656 540L654 482Z" fill="#112e42" stroke="#112e42"></path><path d="M440.7 162L359 209L390.7 266Z" fill="#15384f" stroke="#15384f"></path><path d="M390.7 266L330 342L412.7 360Z" fill="#081a28" stroke="#081a28"></path><path d="M397.7 84L359 209L440.7 162Z" fill="#1d4e6b" stroke="#1d4e6b"></path><path d="M298 263L330 342L390.7 266Z" fill="#00101c" stroke="#00101c"></path><path d="M412.7 360L344 414L464.7 442Z" fill="#297ea6" stroke="#297ea6"></path><path d="M330 342L344 414L412.7 360Z" fill="#19435d" stroke="#19435d"></path><path d="M839.3 411L762.7 309L753.7 388Z" fill="#277297" stroke="#277297"></path><path d="M762.7 309L827.3 252L768.7 209Z" fill="#19435d" stroke="#19435d"></path><path d="M344 414L427.7 540L464.7 442Z" fill="#1d4e6b" stroke="#1d4e6b"></path><path d="M829.3 540L839.3 411L751.7 448Z" fill="#00101c" stroke="#00101c"></path><path d="M751.7 448L839.3 411L753.7 388Z" fill="#081a28" stroke="#081a28"></path><path d="M359 209L298 263L390.7 266Z" fill="#246688" stroke="#246688"></path><path d="M330 342L182.3 413L344 414Z" fill="#081a28" stroke="#081a28"></path><path d="M545.3 90L397.7 84L440.7 162Z" fill="#15384f" stroke="#15384f"></path><path d="M359 209L252.3 206L298 263Z" fill="#112e42" stroke="#112e42"></path><path d="M656 540L775.7 540L654 482Z" fill="#1d4e6b" stroke="#1d4e6b"></path><path d="M827.3 252L862.3 216L768.7 209Z" fill="#205a7a" stroke="#205a7a"></path><path d="M768.7 209L765.7 77L604 172Z" fill="#00101c" stroke="#00101c"></path><path d="M960 286L862.3 216L827.3 252Z" fill="#15384f" stroke="#15384f"></path><path d="M853.3 66L765.7 77L768.7 209Z" fill="#1d4e6b" stroke="#1d4e6b"></path><path d="M605 0L562.3 0L545.3 90Z" fill="#112e42" stroke="#112e42"></path><path d="M545.3 90L402.7 0L397.7 84Z" fill="#081a28" stroke="#081a28"></path><path d="M960 466L880.3 373L839.3 411Z" fill="#19435d" stroke="#19435d"></path><path d="M839.3 411L880.3 373L762.7 309Z" fill="#0c2435" stroke="#0c2435"></path><path d="M605 0L545.3 90L602 110Z" fill="#19435d" stroke="#19435d"></path><path d="M747.7 0L605 0L602 110Z" fill="#00101c" stroke="#00101c"></path><path d="M344 414L340 540L427.7 540Z" fill="#1d4e6b" stroke="#1d4e6b"></path><path d="M244.3 540L340 540L344 414Z" fill="#081a28" stroke="#081a28"></path><path d="M397.7 84L315 119L359 209Z" fill="#277297" stroke="#277297"></path><path d="M284 0L315 119L397.7 84Z" fill="#1d4e6b" stroke="#1d4e6b"></path><path d="M775.7 540L829.3 540L751.7 448Z" fill="#15384f" stroke="#15384f"></path><path d="M315 119L252.3 206L359 209Z" fill="#246688" stroke="#246688"></path><path d="M298 263L207.3 326L330 342Z" fill="#19435d" stroke="#19435d"></path><path d="M853.3 66L747.7 0L765.7 77Z" fill="#1d4e6b" stroke="#1d4e6b"></path><path d="M765.7 77L747.7 0L602 110Z" fill="#205a7a" stroke="#205a7a"></path><path d="M562.3 0L402.7 0L545.3 90Z" fill="#0c2435" stroke="#0c2435"></path><path d="M960 144L853.3 66L862.3 216Z" fill="#19435d" stroke="#19435d"></path><path d="M862.3 216L853.3 66L768.7 209Z" fill="#19435d" stroke="#19435d"></path><path d="M207.3 290L207.3 326L298 263Z" fill="#081a28" stroke="#081a28"></path><path d="M252.3 206L207.3 290L298 263Z" fill="#246688" stroke="#246688"></path><path d="M960 466L960 325L880.3 373Z" fill="#297ea6" stroke="#297ea6"></path><path d="M880.3 373L960 286L827.3 252Z" fill="#15384f" stroke="#15384f"></path><path d="M960 325L960 286L880.3 373Z" fill="#246688" stroke="#246688"></path><path d="M182.3 413L244.3 540L344 414Z" fill="#297ea6" stroke="#297ea6"></path><path d="M106.7 341L182.3 413L207.3 326Z" fill="#277297" stroke="#277297"></path><path d="M207.3 326L182.3 413L330 342Z" fill="#205a7a" stroke="#205a7a"></path><path d="M829.3 540L960 466L839.3 411Z" fill="#00101c" stroke="#00101c"></path><path d="M960 286L960 144L862.3 216Z" fill="#1d4e6b" stroke="#1d4e6b"></path><path d="M252.3 206L143.7 265L207.3 290Z" fill="#205a7a" stroke="#205a7a"></path><path d="M207.3 290L143.7 265L207.3 326Z" fill="#246688" stroke="#246688"></path><path d="M315 119L234.3 71L252.3 206Z" fill="#19435d" stroke="#19435d"></path><path d="M284 0L234.3 71L315 119Z" fill="#205a7a" stroke="#205a7a"></path><path d="M402.7 0L284 0L397.7 84Z" fill="#19435d" stroke="#19435d"></path><path d="M960 73L880.3 0L853.3 66Z" fill="#1d4e6b" stroke="#1d4e6b"></path><path d="M853.3 66L880.3 0L747.7 0Z" fill="#00101c" stroke="#00101c"></path><path d="M102.7 208L143.7 265L252.3 206Z" fill="#205a7a" stroke="#205a7a"></path><path d="M829.3 540L960 540L960 466Z" fill="#246688" stroke="#246688"></path><path d="M960 144L960 73L853.3 66Z" fill="#277297" stroke="#277297"></path><path d="M143.7 265L106.7 341L207.3 326Z" fill="#081a28" stroke="#081a28"></path><path d="M182.3 413L123.7 540L244.3 540Z" fill="#277297" stroke="#277297"></path><path d="M0 297L106.7 341L143.7 265Z" fill="#15384f" stroke="#15384f"></path><path d="M74.7 115L102.7 208L234.3 71Z" fill="#246688" stroke="#246688"></path><path d="M234.3 71L102.7 208L252.3 206Z" fill="#246688" stroke="#246688"></path><path d="M960 73L960 0L880.3 0Z" fill="#205a7a" stroke="#205a7a"></path><path d="M0 395L92.7 442L106.7 341Z" fill="#19435d" stroke="#19435d"></path><path d="M106.7 341L92.7 442L182.3 413Z" fill="#297ea6" stroke="#297ea6"></path><path d="M92.7 442L123.7 540L182.3 413Z" fill="#00101c" stroke="#00101c"></path><path d="M284 0L177.3 0L234.3 71Z" fill="#112e42" stroke="#112e42"></path><path d="M177.3 0L74.7 115L234.3 71Z" fill="#1d4e6b" stroke="#1d4e6b"></path><path d="M102.7 208L0 297L143.7 265Z" fill="#15384f" stroke="#15384f"></path><path d="M0 198L0 297L102.7 208Z" fill="#1d4e6b" stroke="#1d4e6b"></path><path d="M92.7 442L0 472L123.7 540Z" fill="#1d4e6b" stroke="#1d4e6b"></path><path d="M0 297L0 395L106.7 341Z" fill="#297ea6" stroke="#297ea6"></path><path d="M74.7 115L0 198L102.7 208Z" fill="#205a7a" stroke="#205a7a"></path><path d="M177.3 0L86.7 0L74.7 115Z" fill="#205a7a" stroke="#205a7a"></path><path d="M0 78L0 198L74.7 115Z" fill="#205a7a" stroke="#205a7a"></path><path d="M0 395L0 472L92.7 442Z" fill="#15384f" stroke="#15384f"></path><path d="M0 472L0 540L123.7 540Z" fill="#15384f" stroke="#15384f"></path><path d="M86.7 0L0 78L74.7 115Z" fill="#00101c" stroke="#00101c"></path><path d="M86.7 0L0 0L0 78Z" fill="#19435d" stroke="#19435d"></path></g></svg>